<svg width="32" height="32" viewBox="0 0 32 32" fill="none" xmlns="http://www.w3.org/2000/svg">
<g clip-path="url(#clip0_8_14)">
<rect width="32" height="32" fill="#F8F9FD"/>
<rect width="32" height="32" rx="11" fill="#3547AC"/>
<path fill-rule="evenodd" clip-rule="evenodd" d="M12.25 10.75C12.25 9.75544 12.6451 8.80161 13.3483 8.09835C14.0516 7.39509 15.0054 7 16 7C16.9946 7 17.9484 7.39509 18.6517 8.09835C19.3549 8.80161 19.75 9.75544 19.75 10.75C19.75 11.7446 19.3549 12.6984 18.6517 13.4017C17.9484 14.1049 16.9946 14.5 16 14.5C15.0054 14.5 14.0516 14.1049 13.3483 13.4017C12.6451 12.6984 12.25 11.7446 12.25 10.75ZM19.75 13.75C19.75 12.9544 20.0661 12.1913 20.6287 11.6287C21.1913 11.0661 21.9544 10.75 22.75 10.75C23.5456 10.75 24.3087 11.0661 24.8713 11.6287C25.4339 12.1913 25.75 12.9544 25.75 13.75C25.75 14.5456 25.4339 15.3087 24.8713 15.8713C24.3087 16.4339 23.5456 16.75 22.75 16.75C21.9544 16.75 21.1913 16.4339 20.6287 15.8713C20.0661 15.3087 19.75 14.5456 19.75 13.75V13.75ZM6.25 13.75C6.25 12.9544 6.56607 12.1913 7.12868 11.6287C7.69129 11.0661 8.45435 10.75 9.25 10.75C10.0456 10.75 10.8087 11.0661 11.3713 11.6287C11.9339 12.1913 12.25 12.9544 12.25 13.75C12.25 14.5456 11.9339 15.3087 11.3713 15.8713C10.8087 16.4339 10.0456 16.75 9.25 16.75C8.45435 16.75 7.69129 16.4339 7.12868 15.8713C6.56607 15.3087 6.25 14.5456 6.25 13.75ZM10.31 19.117C10.92 18.161 11.7611 17.3743 12.7556 16.8294C13.7502 16.2846 14.866 15.9994 16 16C16.9498 15.9991 17.8891 16.1989 18.7564 16.5862C19.6237 16.9734 20.3994 17.5395 21.0327 18.2474C21.6661 18.9552 22.1428 19.7888 22.4317 20.6936C22.7205 21.5985 22.815 22.5541 22.709 23.498C22.696 23.6153 22.6556 23.7278 22.591 23.8265C22.5263 23.9252 22.4393 24.0073 22.337 24.066C20.4086 25.1725 18.2233 25.7532 16 25.75C13.7766 25.7535 11.5913 25.1728 9.663 24.066C9.56069 24.0073 9.47368 23.9252 9.40904 23.8265C9.34441 23.7278 9.30396 23.6153 9.291 23.498C9.12305 21.9646 9.48246 20.4198 10.31 19.118V19.117Z" fill="white"/>
<path d="M9.08199 18.254C8.09574 19.7764 7.63624 21.5803 7.77399 23.389C7.1735 23.298 6.5829 23.1506 6.00999 22.949L5.89499 22.909C5.79238 22.8726 5.70254 22.8072 5.63634 22.7208C5.57014 22.6343 5.53042 22.5305 5.52199 22.422L5.51199 22.301C5.47159 21.799 5.53275 21.2939 5.69179 20.816C5.85084 20.3382 6.10453 19.8972 6.43771 19.5195C6.7709 19.1418 7.17676 18.8351 7.63107 18.6177C8.08538 18.4002 8.57883 18.2766 9.08199 18.254V18.254ZM24.226 23.389C24.3637 21.5803 23.9042 19.7764 22.918 18.254C23.4211 18.2766 23.9146 18.4002 24.3689 18.6177C24.8232 18.8351 25.2291 19.1418 25.5623 19.5195C25.8955 19.8972 26.1491 20.3382 26.3082 20.816C26.4672 21.2939 26.5284 21.799 26.488 22.301L26.478 22.422C26.4694 22.5304 26.4296 22.6339 26.3634 22.7202C26.2972 22.8064 26.2074 22.8717 26.105 22.908L25.99 22.948C25.423 23.148 24.834 23.297 24.226 23.389V23.389Z" fill="white"/>
</g>
<defs>
<clipPath id="clip0_8_14">
<rect width="32" height="32" fill="white"/>
</clipPath>
</defs>
</svg>
